workdir? /project/6001902/jklymak/ButeWinds3D/python
/project/6001902/jklymak/ButeWinds3D/python
ffmpeg version 4.2.2 Copyright (c) 2000-2019 the FFmpeg developers
  built with gcc 9.3.0 (Gentoo 9.3.0 p2)
  configuration: --prefix=/cvmfs/soft.computecanada.ca/gentoo/2020/usr --libdir=/cvmfs/soft.computecanada.ca/gentoo/2020/usr/lib64 --shlibdir=/cvmfs/soft.computecanada.ca/gentoo/2020/usr/lib64 --docdir=/cvmfs/soft.computecanada.ca/gentoo/2020/usr/share/doc/ffmpeg-4.2.2/html --mandir=/cvmfs/soft.computecanada.ca/gentoo/2020/usr/share/man --enable-shared --cc=x86_64-pc-linux-gnu-gcc --cxx=x86_64-pc-linux-gnu-g++ --ar=x86_64-pc-linux-gnu-ar --optflags='-O2 -pipe -march=nocona -mtune=generic -O2 -ftree-vectorize -fno-math-errno -pipe' --disable-static --enable-avfilter --enable-avresample --disable-stripping --disable-optimizations --disable-libcelt --disable-indev=v4l2 --disable-outdev=v4l2 --disable-indev=oss --disable-indev=jack --disable-outdev=oss --enable-bzlib --disable-runtime-cpudetect --disable-debug --disable-gcrypt --disable-gnutls --disable-gmp --enable-gpl --disable-hardcoded-tables --enable-iconv --disable-libtls --disable-libxml2 --enable-lzma --enable-network --disable-opencl --disable-openssl --enable-postproc --disable-libsmbclient --enable-ffplay --enable-sdl2 --disable-vaapi --disable-vdpau --enable-xlib --enable-libxcb --enable-libxcb-shm --enable-libxcb-xfixes --enable-zlib --disable-libcdio --disable-libiec61883 --disable-libdc1394 --disable-libcaca --disable-openal --enable-opengl --disable-libv4l2 --disable-libpulse --disable-libdrm --disable-libjack --disable-libopencore-amrwb --disable-libopencore-amrnb --disable-libcodec2 --disable-libdav1d --disable-libfdk-aac --enable-libopenjpeg --disable-libbluray --disable-libgme --disable-libgsm --disable-libaribb24 --disable-mmal --disable-libmodplug --disable-libopus --disable-libilbc --disable-librtmp --disable-libssh --disable-libspeex --disable-libsrt --enable-librsvg --disable-ffnvcodec --enable-libvorbis --disable-libvpx --disable-libzvbi --disable-appkit --disable-libbs2b --disable-chromaprint --disable-cuda-llvm --disable-libflite --disable-frei0r --disable-libfribidi --enable-fontconfig --enable-ladspa --disable-libass --disable-libtesseract --disable-lv2 --enable-libfreetype --disable-libvidstab --disable-librubberband --disable-libzmq --disable-libzimg --disable-libsoxr --enable-pthreads --disable-libvo-amrwbenc --enable-libmp3lame --disable-libkvazaar --disable-libaom --disable-libopenh264 --disable-libsnappy --enable-libtheora --disable-libtwolame --enable-libwavpack --enable-libwebp --enable-libx264 --enable-libx265 --enable-libxvid --disable-armv5te --disable-armv6 --disable-armv6t2 --disable-neon --disable-vfp --disable-vfpv3 --disable-armv8 --disable-mipsdsp --disable-mipsdspr2 --disable-mipsfpu --disable-altivec --disable-amd3dnow --disable-amd3dnowext --disable-aesni --disable-avx --disable-avx2 --disable-fma3 --disable-fma4 --disable-sse3 --disable-ssse3 --disable-sse4 --disable-sse42 --disable-xop --cpu=nocona --disable-doc --disable-htmlpages --enable-manpages
  libavutil      56. 31.100 / 56. 31.100
  libavcodec     58. 54.100 / 58. 54.100
  libavformat    58. 29.100 / 58. 29.100
  libavdevice    58.  8.100 / 58.  8.100
  libavfilter     7. 57.100 /  7. 57.100
  libavresample   4.  0.  0 /  4.  0.  0
  libswscale      5.  5.100 /  5.  5.100
  libswresample   3.  5.100 /  3.  5.100
  libpostproc    55.  5.100 / 55.  5.100
Input #0, image2, from '../results/Bute3d43/Movie/frame%04d.png':
  Duration: 00:00:14.40, start: 0.000000, bitrate: N/A
    Stream #0:0: Video: png, rgba(pc), 700x700 [SAR 3937:3937 DAR 1:1], 20 fps, 20 tbr, 20 tbn, 20 tbc
Stream mapping:
  Stream #0:0 -> #0:0 (png (native) -> h264 (libx264))
Press [q] to stop, [?] for help
[libx264 @ 0x560387726570] using SAR=1/1
[libx264 @ 0x560387726570] using cpu capabilities: MMX2 SSE2Fast SSSE3 SSE4.2 AVX FMA3 BMI2 AVX2
[libx264 @ 0x560387726570] profile High, level 3.1, 4:2:0, 8-bit
[libx264 @ 0x560387726570] 264 - core 157 - H.264/MPEG-4 AVC codec - Copyleft 2003-2018 - http://www.videolan.org/x264.html - options: cabac=1 ref=3 deblock=1:0:0 analyse=0x3:0x113 me=hex subme=7 psy=1 psy_rd=1.00:0.00 mixed_ref=1 me_range=16 chroma_me=1 trellis=1 8x8dct=1 cqm=0 deadzone=21,11 fast_pskip=1 chroma_qp_offset=-2 threads=1 lookahead_threads=1 sliced_threads=0 nr=0 decimate=1 interlaced=0 bluray_compat=0 constrained_intra=0 bframes=3 b_pyramid=2 b_adapt=1 b_bias=0 direct=1 weightb=1 open_gop=0 weightp=2 keyint=250 keyint_min=20 scenecut=40 intra_refresh=0 rc_lookahead=40 rc=crf mbtree=1 crf=12.0 qcomp=0.60 qpmin=0 qpmax=69 qpstep=4 ip_ratio=1.40 aq=1:1.00
Output #0, mp4, to '../results/Bute3d43/Movie/Full.mp4':
  Metadata:
    encoder         : Lavf58.29.100
    Stream #0:0: Video: h264 (libx264) (avc1 / 0x31637661), yuv420p, 700x700 [SAR 1:1 DAR 1:1], q=-1--1, 20 fps, 10240 tbn, 20 tbc
    Metadata:
      encoder         : Lavc58.54.100 libx264
    Side data:
      cpb: bitrate max/min/avg: 0/0/0 buffer size: 0 vbv_delay: -1
frame=   30 fps=0.0 q=0.0 size=       0kB time=00:00:00.00 bitrate=N/A speed=   0x    frame=   42 fps= 40 q=17.0 size=       0kB time=-00:00:00.09 bitrate=N/A speed=N/A    frame=   48 fps= 30 q=17.0 size=       0kB time=00:00:00.20 bitrate=   1.9kbits/s speed=0.126x    frame=   57 fps= 26 q=17.0 size=       0kB time=00:00:00.65 bitrate=   0.6kbits/s speed= 0.3x    frame=   64 fps= 24 q=17.0 size=       0kB time=00:00:01.00 bitrate=   0.4kbits/s speed=0.374x    frame=   71 fps= 19 q=17.0 size=     256kB time=00:00:01.35 bitrate=1553.6kbits/s speed=0.359x    frame=   76 fps= 18 q=17.0 size=     256kB time=00:00:01.60 bitrate=1310.9kbits/s speed=0.374x    frame=   83 fps= 17 q=17.0 size=     512kB time=00:00:01.95 bitrate=2151.0kbits/s speed=0.404x    frame=   88 fps= 16 q=17.0 size=     512kB time=00:00:02.20 bitrate=1906.6kbits/s speed=0.388x    frame=   94 fps= 15 q=17.0 size=     768kB time=00:00:02.50 bitrate=2516.6kbits/s speed=0.405x    frame=   99 fps= 15 q=17.0 size=    1024kB time=00:00:02.75 bitrate=3050.4kbits/s speed=0.411x    frame=  106 fps= 15 q=17.0 size=    1024kB time=00:00:03.10 bitrate=2706.0kbits/s speed=0.427x    frame=  112 fps= 14 q=17.0 size=    1280kB time=00:00:03.40 bitrate=3084.1kbits/s speed=0.434x    frame=  118 fps= 14 q=17.0 size=    1536kB time=00:00:03.70 bitrate=3400.8kbits/s speed=0.442x    frame=  124 fps= 14 q=17.0 size=    1536kB time=00:00:04.00 bitrate=3145.7kbits/s speed=0.448x    frame=  131 fps= 14 q=17.0 size=    1792kB time=00:00:04.35 bitrate=3374.7kbits/s speed=0.458x    frame=  136 fps= 14 q=17.0 size=    2048kB time=00:00:04.60 bitrate=3647.2kbits/s speed=0.459x    frame=  143 fps= 14 q=17.0 size=    2304kB time=00:00:04.95 bitrate=3813.0kbits/s speed=0.468x    frame=  149 fps= 13 q=17.0 size=    2304kB time=00:00:05.25 bitrate=3595.1kbits/s speed=0.473x    frame=  156 fps= 13 q=17.0 size=    2560kB time=00:00:05.60 bitrate=3744.9kbits/s speed=0.48x    frame=  162 fps= 13 q=17.0 size=    2816kB time=00:00:05.90 bitrate=3909.9kbits/s speed=0.484x    frame=  165 fps= 13 q=17.0 size=    2816kB time=00:00:06.05 bitrate=3813.0kbits/s speed=0.472x    frame=  169 fps= 13 q=17.0 size=    2816kB time=00:00:06.25 bitrate=3691.0kbits/s speed=0.467x    frame=  174 fps= 12 q=17.0 size=    3072kB time=00:00:06.50 bitrate=3871.7kbits/s speed=0.466x    frame=  178 fps= 12 q=17.0 size=    3072kB time=00:00:06.70 bitrate=3756.1kbits/s speed=0.46x    frame=  180 fps= 12 q=17.0 size=    3328kB time=00:00:06.80 bitrate=4009.3kbits/s speed=0.449x    frame=  184 fps= 12 q=17.0 size=    3328kB time=00:00:07.00 bitrate=3894.7kbits/s speed=0.447x    frame=  188 fps= 12 q=17.0 size=    3584kB time=00:00:07.20 bitrate=4077.8kbits/s speed=0.443x    frame=  194 fps= 12 q=17.0 size=    3584kB time=00:00:07.50 bitrate=3914.7kbits/s speed=0.446x    frame=  199 fps= 11 q=17.0 size=    3840kB time=00:00:07.75 bitrate=4059.0kbits/s speed=0.447x    frame=  203 fps= 11 q=17.0 size=    3840kB time=00:00:07.95 bitrate=3956.9kbits/s speed=0.442x    frame=  206 fps= 11 q=17.0 size=    4096kB time=00:00:08.10 bitrate=4142.5kbits/s speed=0.438x    frame=  211 fps= 11 q=17.0 size=    4096kB time=00:00:08.35 bitrate=4018.5kbits/s speed=0.439x    frame=  217 fps= 11 q=17.0 size=    4352kB time=00:00:08.65 bitrate=4121.6kbits/s speed=0.442x    frame=  223 fps= 11 q=17.0 size=    4608kB time=00:00:08.95 bitrate=4217.7kbits/s speed=0.446x    frame=  228 fps= 11 q=17.0 size=    4608kB time=00:00:09.20 bitrate=4103.1kbits/s speed=0.444x    frame=  233 fps= 11 q=17.0 size=    4864kB time=00:00:09.45 bitrate=4216.5kbits/s speed=0.444x    frame=  236 fps= 11 q=17.0 size=    4864kB time=00:00:09.60 bitrate=4150.6kbits/s speed=0.438x    frame=  242 fps= 11 q=17.0 size=    5120kB time=00:00:09.90 bitrate=4236.7kbits/s speed=0.441x    frame=  247 fps= 11 q=17.0 size=    5120kB time=00:00:10.15 bitrate=4132.3kbits/s speed=0.442x    frame=  253 fps= 11 q=17.0 size=    5376kB time=00:00:10.45 bitrate=4214.4kbits/s speed=0.444x    frame=  259 fps= 11 q=17.0 size=    5376kB time=00:00:10.75 bitrate=4096.8kbits/s speed=0.446x    frame=  265 fps= 11 q=17.0 size=    5632kB time=00:00:11.05 bitrate=4175.3kbits/s speed=0.447x    frame=  272 fps= 11 q=17.0 size=    5888kB time=00:00:11.40 bitrate=4231.1kbits/s speed=0.451x    frame=  283 fps= 11 q=17.0 size=    6144kB time=00:00:11.95 bitrate=4211.9kbits/s speed=0.463x    frame=  288 fps= 10 q=17.0 Lsize=    7401kB time=00:00:14.25 bitrate=4254.5kbits/s speed=0.512x    
video:7397kB audio:0kB subtitle:0kB other streams:0kB global headers:0kB muxing overhead: 0.057948%
[libx264 @ 0x560387726570] frame I:2     Avg QP: 8.83  size: 54694
[libx264 @ 0x560387726570] frame P:75    Avg QP:12.20  size: 36942
[libx264 @ 0x560387726570] frame B:211   Avg QP:14.40  size: 22243
[libx264 @ 0x560387726570] consecutive B-frames:  2.1%  0.7%  0.0% 97.2%
[libx264 @ 0x560387726570] mb I  I16..4: 49.8% 17.8% 32.4%
[libx264 @ 0x560387726570] mb P  I16..4:  2.7%  7.0%  8.8%  P16..4: 11.5% 13.4% 12.2%  0.0%  0.0%    skip:44.3%
[libx264 @ 0x560387726570] mb B  I16..4:  0.4%  1.2%  1.6%  B16..8: 14.4% 13.0%  7.4%  direct: 9.4%  skip:52.6%  L0:36.5% L1:33.0% BI:30.5%
[libx264 @ 0x560387726570] 8x8 transform intra:36.0% inter:37.6%
[libx264 @ 0x560387726570] coded y,uvDC,uvAC intra: 78.1% 84.3% 81.5% inter: 25.2% 24.3% 16.4%
[libx264 @ 0x560387726570] i16 v,h,dc,p: 22% 72%  3%  3%
[libx264 @ 0x560387726570] i8 v,h,dc,ddl,ddr,vr,hd,vl,hu: 47% 17% 17%  1%  3%  6%  3%  3%  4%
[libx264 @ 0x560387726570] i4 v,h,dc,ddl,ddr,vr,hd,vl,hu: 43% 28% 10%  2%  3%  5%  3%  3%  3%
[libx264 @ 0x560387726570] i8c dc,h,v,p: 29% 35% 25% 11%
[libx264 @ 0x560387726570] Weighted P-Frames: Y:0.0% UV:0.0%
[libx264 @ 0x560387726570] ref P L0: 53.3%  7.0% 24.0% 15.7%
[libx264 @ 0x560387726570] ref B L0: 84.7% 11.0%  4.3%
[libx264 @ 0x560387726570] ref B L1: 96.0%  4.0%
[libx264 @ 0x560387726570] kb/s:4207.42
mkdir: Dropbox/ButeWinds/Bute3d43: File exists
